<?xml version="1.0" standalone="no"?>
<!DOCTYPE svg PUBLIC "-//W3C//DTD SVG 20010904//EN"
 "http://www.w3.org/TR/2001/REC-SVG-20010904/DTD/svg10.dtd">
<svg version="1.0" xmlns="http://www.w3.org/2000/svg"
 width="512.000000pt" height="512.000000pt" viewBox="0 0 512.000000 512.000000"
 preserveAspectRatio="xMidYMid meet">
<metadata>
Created by potrace 1.16, written by Peter Selinger 2001-2019
</metadata>
<g transform="translate(0.000000,512.000000) scale(0.100000,-0.100000)"
fill="#000000" stroke="none">
<path d="M0 2560 l0 -2560 2560 0 2560 0 0 2560 0 2560 -2560 0 -2560 0 0
-2560z m2501 2486 c123 -22 236 -86 348 -197 114 -114 202 -246 295 -440 53
-109 136 -320 136 -343 1 -36 15 -37 136 -16 455 79 831 29 1041 -139 60 -47
73 -79 49 -116 -24 -37 -65 -33 -118 12 -55 46 -161 97 -263 125 -73 20 -102
22 -320 22 -200 0 -259 -4 -353 -21 -63 -12 -116 -23 -118 -26 -3 -2 4 -38 16
-78 30 -111 76 -347 96 -494 l17 -130 96 -72 c139 -103 298 -238 439 -370
l124 -116 38 41 c41 45 63 51 98 26 33 -23 28 -64 -13 -114 -19 -23 -35 -45
-35 -50 0 -4 17 -27 38 -51 180 -209 329 -455 392 -650 112 -342 16 -619 -264
-760 -44 -22 -86 -37 -93 -34 -9 3 -11 0 -7 -7 5 -8 2 -9 -9 -5 -10 3 -17 2
-17 -2 0 -5 -19 -13 -42 -17 -24 -4 -45 -8 -48 -9 -7 -2 -80 -15 -110 -20 -20
-3 -19 -2 8 10 39 18 42 28 4 14 -22 -8 -38 -5 -73 10 -28 13 -37 21 -23 21
11 0 26 6 33 12 9 9 12 9 7 1 -5 -9 3 -9 31 -1 49 13 57 22 16 16 -18 -2 -33
-1 -33 4 0 4 -8 7 -17 6 -37 -3 -64 2 -59 11 3 5 21 9 38 9 44 0 88 7 178 28
41 10 78 17 83 16 4 -1 7 3 7 9 0 6 7 9 15 5 8 -3 15 -2 15 3 0 4 23 18 51 32
71 33 159 121 195 194 28 57 29 66 29 195 0 126 -2 141 -32 227 -61 174 -163
347 -317 539 l-81 101 -125 -120 c-170 -163 -388 -345 -546 -455 -11 -7 -13
-10 -5 -6 10 5 13 3 9 -8 -3 -8 -9 -46 -13 -84 -6 -52 -10 -64 -17 -49 -6 15
-7 12 -4 -12 6 -37 -19 -67 -35 -42 -5 8 -9 23 -10 34 0 11 -3 14 -6 7 -2 -6
-9 -10 -14 -6 -18 11 -8 -19 15 -47 l24 -28 17 22 c14 20 15 20 9 2 -4 -11 -7
-29 -6 -40 0 -11 -2 -14 -5 -7 -3 6 -8 12 -13 12 -9 0 -8 -50 2 -65 3 -5 -1
-16 -9 -24 -13 -12 -14 -11 -8 9 5 14 3 20 -3 16 -6 -3 -13 3 -17 14 -4 11
-11 18 -16 15 -5 -4 -9 -1 -9 4 0 16 20 13 26 -4 9 -22 23 -9 20 18 -3 31 -25
69 -36 62 -5 -3 -7 10 -5 29 2 27 0 33 -11 29 -9 -3 -12 -13 -9 -23 3 -10 2
-21 -3 -24 -5 -3 -8 7 -7 22 1 15 3 37 3 50 1 15 6 21 14 16 7 -4 8 -3 4 4 -5
9 -13 9 -29 0 -20 -10 -21 -10 -7 6 8 10 15 30 16 45 1 14 0 18 -3 9 -2 -10
-11 -18 -20 -18 -9 0 -13 -6 -10 -15 10 -24 -11 -27 -32 -6 -11 11 -23 16 -26
11 -4 -6 -13 -10 -22 -10 -9 0 -21 -6 -27 -13 -6 -7 -10 -10 -8 -8 1 2 -6 13
-15 23 -16 18 -16 18 2 12 14 -6 16 -4 10 7 -4 8 -5 11 0 7 4 -4 14 0 22 10 8
9 12 11 8 5 -9 -18 20 -16 35 2 7 9 19 14 27 11 8 -3 11 -2 8 3 -3 6 3 14 12
20 10 6 14 11 9 11 -5 0 -24 -11 -42 -25 -19 -14 -31 -20 -29 -12 3 7 20 21
38 31 18 11 42 28 54 38 12 11 25 18 30 15 5 -3 10 11 11 31 2 20 7 87 12 147
25 283 22 693 -6 962 l-7 61 -111 73 c-188 124 -362 225 -557 324 -103 52
-193 95 -199 95 -6 0 -105 -46 -218 -102 -114 -56 -213 -102 -219 -101 -7 0
-10 -4 -6 -10 4 -7 0 -8 -13 -3 -10 4 -15 4 -11 0 10 -10 -31 -36 -45 -28 -6
4 -8 3 -5 -3 6 -10 -40 -38 -55 -35 -5 1 -8 -2 -8 -8 0 -5 -6 -7 -14 -4 -8 3
-17 0 -22 -7 -5 -8 -3 -10 7 -5 8 4 5 0 -5 -8 -11 -9 -25 -16 -32 -16 -6 0
-17 -7 -24 -15 -7 -8 -16 -13 -20 -10 -5 3 -11 -1 -14 -7 -3 -7 -3 -2 0 11 4
14 1 27 -7 32 -11 8 -11 12 4 23 16 13 16 15 -13 24 -18 7 -28 7 -25 2 4 -6
13 -10 21 -10 8 0 13 -4 9 -10 -3 -5 -12 -7 -19 -4 -8 3 -17 1 -20 -4 -3 -5
-17 -7 -31 -4 -29 5 -30 3 40 48 22 14 27 15 21 4 -5 -8 4 -2 19 13 15 16 33
26 42 23 8 -3 11 -2 8 4 -3 5 8 16 25 25 16 8 30 13 30 10 0 -3 9 4 21 16 11
11 27 18 35 15 8 -3 13 -2 10 3 -5 8 255 152 337 186 20 8 37 19 37 23 0 18
-434 171 -602 212 -43 10 -82 21 -88 25 -13 8 -22 -15 -55 -155 -16 -63 -34
-122 -40 -130 -6 -8 -12 -41 -13 -73 0 -39 -6 -65 -17 -77 -11 -12 -13 -20 -5
-25 5 -3 8 -11 4 -16 -10 -17 -24 1 -24 32 0 18 5 28 12 27 7 -2 14 7 16 20 2
13 -1 21 -8 20 -7 -2 -20 13 -31 32 -10 19 -19 28 -19 20 0 -13 -2 -13 -11 0
-8 11 -9 8 -5 -15 5 -21 3 -25 -3 -15 -15 25 -3 117 35 258 14 53 26 99 26
102 1 19 -3 30 -10 26 -4 -2 -29 0 -55 5 -26 5 -82 13 -123 18 -88 11 -115 29
-110 73 2 16 6 32 9 35 14 14 100 12 210 -3 64 -10 119 -15 120 -13 2 2 25 60
51 129 184 488 451 791 739 839 74 12 93 12 178 -3z m-1857 -638 c-4 -7 1 -7
17 -2 33 12 83 8 111 -7 13 -7 29 -14 36 -15 37 -6 172 -122 172 -148 0 -5 7
-17 16 -27 19 -21 10 -41 -13 -32 -15 6 -16 5 -3 -9 8 -9 17 -12 18 -7 16 42
52 -74 49 -153 -2 -32 -6 -60 -10 -63 -4 -3 -5 -2 -2 2 3 3 -3 12 -12 18 -9 7
-18 25 -20 40 -4 25 -2 27 11 16 9 -7 13 -18 9 -25 -4 -7 -1 -7 7 1 11 10 7
18 -19 42 -18 17 -30 35 -26 41 3 5 2 10 -4 10 -5 0 -12 -4 -16 -9 -6 -11 -45
-11 -45 -1 0 15 14 19 28 7 13 -10 14 -9 7 3 -10 15 -11 20 -13 54 -2 15 -7
17 -29 12 -21 -5 -24 -4 -13 4 13 8 11 11 -8 16 -19 5 -20 9 -10 22 10 12 10
16 1 19 -10 4 -10 10 -2 24 5 11 15 17 22 14 7 -4 4 0 -5 8 -20 16 -25 32 -6
21 7 -4 8 -3 4 5 -11 17 -28 2 -21 -19 3 -10 -1 -25 -9 -33 -11 -11 -12 -17
-3 -28 10 -11 9 -11 -5 0 -10 7 -17 16 -16 19 2 22 -4 42 -13 42 -6 0 -9 -7
-5 -15 4 -12 2 -13 -14 -3 -12 8 -15 15 -9 19 7 4 5 9 -5 12 -9 4 -16 1 -16
-5 0 -7 -4 -7 -13 1 -8 6 -18 7 -22 3 -5 -4 -4 -1 0 7 6 11 4 13 -8 8 -10 -3
-17 -2 -17 3 0 13 23 13 37 -1 13 -13 53 4 53 23 0 7 5 6 15 -2 9 -7 18 -10
22 -6 3 3 0 6 -7 6 -9 0 -8 5 5 13 14 11 15 16 5 22 -8 5 -11 4 -7 -2 4 -6 0
-14 -9 -17 -12 -5 -14 -1 -9 17 4 15 3 18 -3 9 -7 -10 -16 -8 -40 12 -26 23
-30 24 -25 7 3 -11 16 -22 29 -25 28 -7 30 -18 8 -41 -14 -14 -18 -14 -33 -1
-9 8 -28 13 -46 10 -24 -4 -26 -3 -10 5 37 16 48 36 28 52 -11 9 -14 10 -9 2
4 -7 3 -20 -2 -29 -8 -15 -11 -15 -31 5 -11 11 -32 21 -45 21 -13 0 -27 7 -30
16 -3 8 -2 12 4 9 6 -3 10 1 10 10 0 9 5 13 10 10 6 -4 7 -11 4 -17z m4043
-813 c108 -49 204 -170 233 -294 64 -275 -191 -545 -472 -500 -348 56 -479
475 -226 719 117 113 314 145 465 75z m-2026 -250 c173 -26 310 -85 356 -154
l23 -34 0 -574 c0 -491 -2 -572 -14 -561 -8 7 -12 15 -10 17 6 7 -40 39 -52
34 -6 -2 -10 -17 -9 -34 1 -16 -2 -32 -6 -35 -5 -2 -6 -11 -3 -18 3 -7 -10
-28 -28 -47 -20 -19 -26 -30 -15 -26 12 5 16 3 11 -5 -5 -8 -1 -9 12 -4 14 5
16 4 7 -4 -14 -15 -45 1 -49 24 -1 9 2 14 6 11 10 -6 50 33 50 48 0 5 -7 3
-16 -4 -15 -12 -52 -24 -41 -12 3 2 7 3 9 1 3 -2 13 5 23 16 20 20 32 62 15
51 -6 -4 -10 6 -9 22 0 27 1 27 9 6 12 -28 24 -30 15 -3 -4 13 -2 20 7 20 10
0 9 3 -2 9 -8 6 -19 7 -25 4 -5 -4 1 5 14 20 12 14 20 30 16 36 -3 6 -1 11 4
11 6 0 11 5 11 10 0 19 -28 10 -33 -12 -5 -18 -8 -19 -21 -8 -9 7 -16 9 -16 4
-1 -11 -24 28 -25 40 0 5 -6 11 -13 14 -8 2 -10 -3 -6 -15 5 -15 4 -15 -5 -3
-5 8 -13 11 -17 7 -4 -3 -1 -15 7 -24 12 -17 12 -17 -6 -1 -25 23 -8 42 38 43
24 0 31 4 29 16 -1 9 5 22 13 29 8 7 15 9 15 5 0 -4 7 -2 15 5 15 13 12 30 -7
30 -5 0 -7 -7 -4 -16 3 -8 2 -13 -3 -10 -4 3 -9 28 -10 57 -1 28 -4 55 -6 59
-3 4 -23 -2 -46 -13 -23 -11 -58 -20 -79 -19 -22 1 -45 -4 -52 -11 -8 -8 -26
-10 -48 -6 l-35 6 35 2 35 2 -40 14 c-22 8 -41 15 -42 15 -2 0 -3 5 -3 12 0 9
3 9 12 0 17 -17 35 -15 35 3 0 9 -6 14 -14 11 -7 -3 -23 -1 -35 4 -21 8 -20 9
9 9 17 1 35 6 39 12 4 8 -1 9 -17 5 -21 -6 -22 -6 -6 4 10 7 28 10 39 7 11 -3
17 -3 14 1 -6 5 34 18 104 34 8 1 19 7 25 11 5 5 25 17 43 27 31 19 32 22 32
86 0 59 -2 65 -17 59 -39 -17 -181 -56 -222 -62 -34 -5 -42 -3 -36 6 4 8 -2 7
-17 -3 -14 -9 -40 -16 -59 -15 -19 1 -63 -2 -99 -5 -48 -6 -61 -5 -50 3 8 6
28 8 44 5 19 -4 26 -3 22 5 -4 6 -15 11 -24 11 -15 0 -15 2 -2 10 17 11 16 11
-25 14 -16 1 -39 8 -50 15 -18 11 -18 12 8 6 19 -4 34 0 49 15 l22 20 -22 0
c-12 0 -22 -4 -22 -10 0 -12 -67 -13 -74 -1 -8 12 -66 20 -66 9 0 -5 10 -13
23 -18 12 -5 15 -9 7 -9 -25 -1 -51 25 -44 43 7 17 20 21 28 8 5 -9 276 -6
284 3 3 3 19 5 36 5 82 0 281 67 302 102 7 10 7 119 0 125 -2 2 -19 -3 -38
-11 -72 -30 -190 -55 -319 -66 -128 -11 -180 -9 -349 15 -19 3 -44 5 -55 5
-18 1 -18 2 -3 11 12 7 24 6 38 -1 12 -6 20 -7 20 -1 0 5 -13 12 -29 16 -36 8
-109 75 -83 75 10 0 24 -6 32 -12 12 -11 12 -10 0 5 -11 14 -22 18 -47 14 -26
-5 -35 -2 -43 14 -6 11 -15 17 -21 14 -5 -4 -8 -1 -7 7 2 9 -8 12 -34 10 -29
-2 -38 1 -38 13 0 8 -4 15 -10 15 -5 0 -10 7 -10 15 0 8 5 15 11 15 5 0 7 6 3
13 -4 6 2 3 14 -7 12 -11 20 -22 17 -25 -4 -3 -10 1 -14 8 -6 9 -11 10 -15 2
-4 -6 -1 -13 6 -15 33 -10 74 -19 81 -17 5 1 5 -3 2 -9 -4 -6 -1 -11 6 -9 31
4 49 -2 49 -16 0 -8 5 -15 11 -15 5 0 7 5 4 10 -8 12 38 4 69 -13 11 -5 110
-12 220 -14 179 -5 213 -3 305 17 149 30 242 77 228 114 -9 22 -123 72 -212
93 -63 14 -120 18 -265 18 -189 0 -289 -13 -376 -50 -20 -8 -41 -12 -47 -8 -6
3 -7 1 -3 -5 5 -8 -2 -12 -18 -12 -16 0 -26 -6 -26 -14 0 -20 -17 -29 -26 -15
-5 8 -3 9 6 4 9 -5 11 -4 6 4 -6 9 -11 9 -21 1 -9 -8 -14 -7 -18 4 -3 7 -2 18
1 22 4 5 0 2 -9 -8 -9 -9 -19 -14 -23 -11 -3 4 -6 1 -6 -5 0 -5 3 -12 8 -15 4
-2 2 -2 -5 -1 -7 2 -19 -4 -28 -12 -8 -9 -15 -11 -15 -5 0 5 6 14 13 18 15 10
19 43 4 43 -6 0 -7 3 -4 6 4 4 13 1 22 -6 9 -7 19 -10 23 -6 4 4 -1 12 -11 17
-9 6 -17 15 -17 22 0 7 4 6 10 -3 7 -10 10 -11 11 -2 1 6 2 17 3 22 1 14 58
50 68 44 4 -3 8 0 8 7 0 8 4 8 15 -1 13 -11 14 -10 9 4 -6 15 5 20 43 19 7 -1
10 4 6 10 -4 6 0 8 10 4 10 -3 17 -3 17 2 0 4 6 8 13 9 6 0 32 6 57 12 127 32
365 39 521 15z"/>
<path d="M2270 4908 c-217 -82 -432 -361 -575 -743 -20 -55 -39 -103 -41 -107
-3 -4 15 -12 38 -18 206 -51 461 -136 657 -217 l134 -56 41 16 c244 94 359
134 488 172 148 42 153 44 151 70 -3 44 -112 304 -175 420 -139 253 -282 403
-444 462 -85 30 -195 31 -274 1z"/>
<path d="M3160 3870 c-14 -4 -80 -24 -147 -44 -68 -20 -179 -57 -249 -82
l-126 -47 93 -50 c202 -107 320 -174 454 -258 77 -48 141 -87 142 -86 4 5 -50
300 -72 395 -48 201 -42 190 -95 172z"/>
<path d="M3487 2943 c10 -118 10 -573 0 -752 l-8 -144 68 54 c164 129 483 423
483 446 0 32 -508 483 -544 483 -3 0 -3 -39 1 -87z"/>
<path d="M4417 3496 c-218 -81 -275 -348 -106 -500 185 -166 484 -42 492 204
4 115 -54 218 -152 273 -64 36 -171 47 -234 23z"/>
</g>
</svg>
